<?xml version="1.0" encoding="utf-8"?>
<svg version="1.1" xmlns:xlink="http://www.w3.org/1999/xlink" width="13px" height="13px" viewBox="303 227  13 13" xmlns="http://www.w3.org/2000/svg">
  <path d="M 309.5 227  C 313.14 227  316 229.86  316 233.5  C 316 237.14  313.14 240  309.5 240  C 305.86 240  303 237.14  303 233.5  C 303 229.86  305.86 227  309.5 227  Z " fill-rule="nonzero" fill="#f0f0f0" stroke="none" />
  <path d="M 309.5 227.5  C 312.86 227.5  315.5 230.14  315.5 233.5  C 315.5 236.86  312.86 239.5  309.5 239.5  C 306.14 239.5  303.5 236.86  303.5 233.5  C 303.5 230.14  306.14 227.5  309.5 227.5  Z " stroke-width="1" stroke="#797979" fill="none" />
  <path d="M 309.5 236.75  C 307.68 236.75  306.25 235.32  306.25 233.5  C 306.25 231.68  307.68 230.25  309.5 230.25  C 311.32 230.25  312.75 231.68  312.75 233.5  C 312.75 235.32  311.32 236.75  309.5 236.75  " fill-rule="nonzero" fill="#797979" stroke="none" />
</svg>