<?xml version="1.0" encoding="utf-8"?>
<svg version="1.1" xmlns:xlink="http://www.w3.org/1999/xlink" width="13px" height="13px" viewBox="176 227  13 13" xmlns="http://www.w3.org/2000/svg">
  <path d="M 182.5 227  C 186.14 227  189 229.86  189 233.5  C 189 237.14  186.14 240  182.5 240  C 178.86 240  176 237.14  176 233.5  C 176 229.86  178.86 227  182.5 227  Z " fill-rule="nonzero" fill="#f0f0f0" stroke="none" />
  <path d="M 182.5 227.5  C 185.86 227.5  188.5 230.14  188.5 233.5  C 188.5 236.86  185.86 239.5  182.5 239.5  C 179.14 239.5  176.5 236.86  176.5 233.5  C 176.5 230.14  179.14 227.5  182.5 227.5  Z " stroke-width="1" stroke="#797979" fill="none" />
  <path d="M 182.5 236.75  C 180.68 236.75  179.25 235.32  179.25 233.5  C 179.25 231.68  180.68 230.25  182.5 230.25  C 184.32 230.25  185.75 231.68  185.75 233.5  C 185.75 235.32  184.32 236.75  182.5 236.75  " fill-rule="nonzero" fill="#797979" stroke="none" />
</svg>