<?xml version="1.0" encoding="utf-8"?>
<svg version="1.1" xmlns:xlink="http://www.w3.org/1999/xlink" width="1190px" height="258px" xmlns="http://www.w3.org/2000/svg">
  <defs>
    <filter x="34px" y="283px" width="1190px" height="258px" filterUnits="userSpaceOnUse" id="filter284">
      <feOffset dx="0" dy="0" in="SourceAlpha" result="shadowOffsetInner" />
      <feGaussianBlur stdDeviation="2.5" in="shadowOffsetInner" result="shadowGaussian" />
      <feComposite in2="shadowGaussian" operator="atop" in="SourceAlpha" result="shadowComposite" />
      <feColorMatrix type="matrix" values="0 0 0 0 0.8941176470588235  0 0 0 0 0.8941176470588235  0 0 0 0 0.8941176470588235  0 0 0 1 0  " in="shadowComposite" />
    </filter>
    <g id="widget285">
      <path d="M 40 300  A 11 11 0 0 1 51 289 L 1207 289  A 11 11 0 0 1 1218 300 L 1218 524  A 11 11 0 0 1 1207 535 L 51 535  A 11 11 0 0 1 40 524 L 40 300  Z " fill-rule="nonzero" fill="#ffffff" stroke="none" />
      <path d="M 39.5 300  A 11.5 11.5 0 0 1 51 288.5 L 1207 288.5  A 11.5 11.5 0 0 1 1218.5 300 L 1218.5 524  A 11.5 11.5 0 0 1 1207 535.5 L 51 535.5  A 11.5 11.5 0 0 1 39.5 524 L 39.5 300  Z " stroke-width="1" stroke="#f2f2f2" fill="none" stroke-opacity="0.9882352941176471" />
    </g>
  </defs>
  <g transform="matrix(1 0 0 1 -34 -283 )">
    <use xlink:href="#widget285" filter="url(#filter284)" />
    <use xlink:href="#widget285" />
  </g>
</svg>