<?xml version="1.0" encoding="utf-8"?>
<svg version="1.1" xmlns:xlink="http://www.w3.org/1999/xlink" width="13px" height="13px" viewBox="303 246  13 13" xmlns="http://www.w3.org/2000/svg">
  <path d="M 309.5 246  C 313.14 246  316 248.86  316 252.5  C 316 256.14  313.14 259  309.5 259  C 305.86 259  303 256.14  303 252.5  C 303 248.86  305.86 246  309.5 246  Z " fill-rule="nonzero" fill="#ffffff" stroke="none" />
  <path d="M 309.5 246.5  C 312.86 246.5  315.5 249.14  315.5 252.5  C 315.5 255.86  312.86 258.5  309.5 258.5  C 306.14 258.5  303.5 255.86  303.5 252.5  C 303.5 249.14  306.14 246.5  309.5 246.5  Z " stroke-width="1" stroke="#797979" fill="none" />
  <path d="M 309.5 255.75  C 307.68 255.75  306.25 254.32  306.25 252.5  C 306.25 250.68  307.68 249.25  309.5 249.25  C 311.32 249.25  312.75 250.68  312.75 252.5  C 312.75 254.32  311.32 255.75  309.5 255.75  " fill-rule="nonzero" fill="#797979" stroke="none" />
</svg>