<?xml version="1.0" encoding="utf-8"?>
<svg version="1.1" xmlns:xlink="http://www.w3.org/1999/xlink" width="13px" height="13px" viewBox="303 380  13 13" xmlns="http://www.w3.org/2000/svg">
  <path d="M 309.5 380  C 313.14 380  316 382.86  316 386.5  C 316 390.14  313.14 393  309.5 393  C 305.86 393  303 390.14  303 386.5  C 303 382.86  305.86 380  309.5 380  Z " fill-rule="nonzero" fill="#ffffff" stroke="none" />
  <path d="M 309.5 380.5  C 312.86 380.5  315.5 383.14  315.5 386.5  C 315.5 389.86  312.86 392.5  309.5 392.5  C 306.14 392.5  303.5 389.86  303.5 386.5  C 303.5 383.14  306.14 380.5  309.5 380.5  Z " stroke-width="1" stroke="#797979" fill="none" />
  <path d="M 309.5 389.75  C 307.68 389.75  306.25 388.32  306.25 386.5  C 306.25 384.68  307.68 383.25  309.5 383.25  C 311.32 383.25  312.75 384.68  312.75 386.5  C 312.75 388.32  311.32 389.75  309.5 389.75  " fill-rule="nonzero" fill="#797979" stroke="none" />
</svg>