<?xml version="1.0" encoding="utf-8"?>
<svg version="1.1" xmlns:xlink="http://www.w3.org/1999/xlink" width="13px" height="13px" viewBox="440 380  13 13" xmlns="http://www.w3.org/2000/svg">
  <path d="M 446.5 380  C 450.14 380  453 382.86  453 386.5  C 453 390.14  450.14 393  446.5 393  C 442.86 393  440 390.14  440 386.5  C 440 382.86  442.86 380  446.5 380  Z " fill-rule="nonzero" fill="#ffffff" stroke="none" />
  <path d="M 446.5 380.5  C 449.86 380.5  452.5 383.14  452.5 386.5  C 452.5 389.86  449.86 392.5  446.5 392.5  C 443.14 392.5  440.5 389.86  440.5 386.5  C 440.5 383.14  443.14 380.5  446.5 380.5  Z " stroke-width="1" stroke="#797979" fill="none" />
  <path d="M 446.5 389.75  C 444.68 389.75  443.25 388.32  443.25 386.5  C 443.25 384.68  444.68 383.25  446.5 383.25  C 448.32 383.25  449.75 384.68  449.75 386.5  C 449.75 388.32  448.32 389.75  446.5 389.75  " fill-rule="nonzero" fill="#797979" stroke="none" />
</svg>