<?xml version="1.0" encoding="utf-8"?>
<svg version="1.1" xmlns:xlink="http://www.w3.org/1999/xlink" width="13px" height="13px" viewBox="284 4042  13 13" xmlns="http://www.w3.org/2000/svg">
  <path d="M 290.5 4042  C 294.14 4042  297 4044.86  297 4048.5  C 297 4052.14  294.14 4055  290.5 4055  C 286.86 4055  284 4052.14  284 4048.5  C 284 4044.86  286.86 4042  290.5 4042  Z " fill-rule="nonzero" fill="#ffffff" stroke="none" />
  <path d="M 290.5 4042.5  C 293.86 4042.5  296.5 4045.14  296.5 4048.5  C 296.5 4051.86  293.86 4054.5  290.5 4054.5  C 287.14 4054.5  284.5 4051.86  284.5 4048.5  C 284.5 4045.14  287.14 4042.5  290.5 4042.5  Z " stroke-width="1" stroke="#797979" fill="none" />
  <path d="M 290.5 4051.75  C 288.68 4051.75  287.25 4050.32  287.25 4048.5  C 287.25 4046.68  288.68 4045.25  290.5 4045.25  C 292.32 4045.25  293.75 4046.68  293.75 4048.5  C 293.75 4050.32  292.32 4051.75  290.5 4051.75  " fill-rule="nonzero" fill="#797979" stroke="none" />
</svg>