<?xml version="1.0" encoding="utf-8"?>
<svg version="1.1" xmlns:xlink="http://www.w3.org/1999/xlink" width="13px" height="13px" viewBox="284 3245  13 13" xmlns="http://www.w3.org/2000/svg">
  <path d="M 290.5 3245  C 294.14 3245  297 3247.86  297 3251.5  C 297 3255.14  294.14 3258  290.5 3258  C 286.86 3258  284 3255.14  284 3251.5  C 284 3247.86  286.86 3245  290.5 3245  Z " fill-rule="nonzero" fill="#ffffff" stroke="none" />
  <path d="M 290.5 3245.5  C 293.86 3245.5  296.5 3248.14  296.5 3251.5  C 296.5 3254.86  293.86 3257.5  290.5 3257.5  C 287.14 3257.5  284.5 3254.86  284.5 3251.5  C 284.5 3248.14  287.14 3245.5  290.5 3245.5  Z " stroke-width="1" stroke="#797979" fill="none" />
  <path d="M 290.5 3254.75  C 288.68 3254.75  287.25 3253.32  287.25 3251.5  C 287.25 3249.68  288.68 3248.25  290.5 3248.25  C 292.32 3248.25  293.75 3249.68  293.75 3251.5  C 293.75 3253.32  292.32 3254.75  290.5 3254.75  " fill-rule="nonzero" fill="#797979" stroke="none" />
</svg>