<?xml version="1.0" encoding="utf-8"?>
<svg version="1.1" xmlns:xlink="http://www.w3.org/1999/xlink" width="13px" height="13px" viewBox="284 1968  13 13" xmlns="http://www.w3.org/2000/svg">
  <path d="M 290.5 1968  C 294.14 1968  297 1970.86  297 1974.5  C 297 1978.14  294.14 1981  290.5 1981  C 286.86 1981  284 1978.14  284 1974.5  C 284 1970.86  286.86 1968  290.5 1968  Z " fill-rule="nonzero" fill="#f0f0f0" stroke="none" />
  <path d="M 290.5 1968.5  C 293.86 1968.5  296.5 1971.14  296.5 1974.5  C 296.5 1977.86  293.86 1980.5  290.5 1980.5  C 287.14 1980.5  284.5 1977.86  284.5 1974.5  C 284.5 1971.14  287.14 1968.5  290.5 1968.5  Z " stroke-width="1" stroke="#797979" fill="none" />
  <path d="M 290.5 1977.75  C 288.68 1977.75  287.25 1976.32  287.25 1974.5  C 287.25 1972.68  288.68 1971.25  290.5 1971.25  C 292.32 1971.25  293.75 1972.68  293.75 1974.5  C 293.75 1976.32  292.32 1977.75  290.5 1977.75  " fill-rule="nonzero" fill="#797979" stroke="none" />
</svg>