<?xml version="1.0" encoding="utf-8"?>
<svg version="1.1" xmlns:xlink="http://www.w3.org/1999/xlink" width="13px" height="13px" viewBox="157 1834  13 13" xmlns="http://www.w3.org/2000/svg">
  <path d="M 163.5 1834  C 167.14 1834  170 1836.86  170 1840.5  C 170 1844.14  167.14 1847  163.5 1847  C 159.86 1847  157 1844.14  157 1840.5  C 157 1836.86  159.86 1834  163.5 1834  Z " fill-rule="nonzero" fill="#ffffff" stroke="none" />
  <path d="M 163.5 1834.5  C 166.86 1834.5  169.5 1837.14  169.5 1840.5  C 169.5 1843.86  166.86 1846.5  163.5 1846.5  C 160.14 1846.5  157.5 1843.86  157.5 1840.5  C 157.5 1837.14  160.14 1834.5  163.5 1834.5  Z " stroke-width="1" stroke="#797979" fill="none" />
  <path d="M 163.5 1843.75  C 161.68 1843.75  160.25 1842.32  160.25 1840.5  C 160.25 1838.68  161.68 1837.25  163.5 1837.25  C 165.32 1837.25  166.75 1838.68  166.75 1840.5  C 166.75 1842.32  165.32 1843.75  163.5 1843.75  " fill-rule="nonzero" fill="#797979" stroke="none" />
</svg>