<?xml version="1.0" encoding="utf-8"?>
<svg version="1.1" xmlns:xlink="http://www.w3.org/1999/xlink" width="13px" height="13px" viewBox="284 1834  13 13" xmlns="http://www.w3.org/2000/svg">
  <path d="M 290.5 1834  C 294.14 1834  297 1836.86  297 1840.5  C 297 1844.14  294.14 1847  290.5 1847  C 286.86 1847  284 1844.14  284 1840.5  C 284 1836.86  286.86 1834  290.5 1834  Z " fill-rule="nonzero" fill="#ffffff" stroke="none" />
  <path d="M 290.5 1834.5  C 293.86 1834.5  296.5 1837.14  296.5 1840.5  C 296.5 1843.86  293.86 1846.5  290.5 1846.5  C 287.14 1846.5  284.5 1843.86  284.5 1840.5  C 284.5 1837.14  287.14 1834.5  290.5 1834.5  Z " stroke-width="1" stroke="#797979" fill="none" />
  <path d="M 290.5 1843.75  C 288.68 1843.75  287.25 1842.32  287.25 1840.5  C 287.25 1838.68  288.68 1837.25  290.5 1837.25  C 292.32 1837.25  293.75 1838.68  293.75 1840.5  C 293.75 1842.32  292.32 1843.75  290.5 1843.75  " fill-rule="nonzero" fill="#797979" stroke="none" />
</svg>