<?xml version="1.0" encoding="utf-8"?>
<svg version="1.1" xmlns:xlink="http://www.w3.org/1999/xlink" width="13px" height="13px" viewBox="157 232  13 13" xmlns="http://www.w3.org/2000/svg">
  <path d="M 163.5 232  C 167.14 232  170 234.86  170 238.5  C 170 242.14  167.14 245  163.5 245  C 159.86 245  157 242.14  157 238.5  C 157 234.86  159.86 232  163.5 232  Z " fill-rule="nonzero" fill="#f0f0f0" stroke="none" />
  <path d="M 163.5 232.5  C 166.86 232.5  169.5 235.14  169.5 238.5  C 169.5 241.86  166.86 244.5  163.5 244.5  C 160.14 244.5  157.5 241.86  157.5 238.5  C 157.5 235.14  160.14 232.5  163.5 232.5  Z " stroke-width="1" stroke="#797979" fill="none" />
  <path d="M 163.5 241.75  C 161.68 241.75  160.25 240.32  160.25 238.5  C 160.25 236.68  161.68 235.25  163.5 235.25  C 165.32 235.25  166.75 236.68  166.75 238.5  C 166.75 240.32  165.32 241.75  163.5 241.75  " fill-rule="nonzero" fill="#797979" stroke="none" />
</svg>