<?xml version="1.0" encoding="utf-8"?>
<svg version="1.1" xmlns:xlink="http://www.w3.org/1999/xlink" width="13px" height="13px" viewBox="565 1968  13 13" xmlns="http://www.w3.org/2000/svg">
  <path d="M 571.5 1968  C 575.14 1968  578 1970.86  578 1974.5  C 578 1978.14  575.14 1981  571.5 1981  C 567.86 1981  565 1978.14  565 1974.5  C 565 1970.86  567.86 1968  571.5 1968  Z " fill-rule="nonzero" fill="#ffffff" stroke="none" />
  <path d="M 571.5 1968.5  C 574.86 1968.5  577.5 1971.14  577.5 1974.5  C 577.5 1977.86  574.86 1980.5  571.5 1980.5  C 568.14 1980.5  565.5 1977.86  565.5 1974.5  C 565.5 1971.14  568.14 1968.5  571.5 1968.5  Z " stroke-width="1" stroke="#797979" fill="none" />
  <path d="M 571.5 1977.75  C 569.68 1977.75  568.25 1976.32  568.25 1974.5  C 568.25 1972.68  569.68 1971.25  571.5 1971.25  C 573.32 1971.25  574.75 1972.68  574.75 1974.5  C 574.75 1976.32  573.32 1977.75  571.5 1977.75  " fill-rule="nonzero" fill="#797979" stroke="none" />
</svg>