<?xml version="1.0" encoding="utf-8"?>
<svg version="1.1" xmlns:xlink="http://www.w3.org/1999/xlink" width="13px" height="13px" viewBox="284 1008  13 13" xmlns="http://www.w3.org/2000/svg">
  <path d="M 290.5 1008  C 294.14 1008  297 1010.86  297 1014.5  C 297 1018.14  294.14 1021  290.5 1021  C 286.86 1021  284 1018.14  284 1014.5  C 284 1010.86  286.86 1008  290.5 1008  Z " fill-rule="nonzero" fill="#ffffff" stroke="none" />
  <path d="M 290.5 1008.5  C 293.86 1008.5  296.5 1011.14  296.5 1014.5  C 296.5 1017.86  293.86 1020.5  290.5 1020.5  C 287.14 1020.5  284.5 1017.86  284.5 1014.5  C 284.5 1011.14  287.14 1008.5  290.5 1008.5  Z " stroke-width="1" stroke="#797979" fill="none" />
  <path d="M 290.5 1017.75  C 288.68 1017.75  287.25 1016.32  287.25 1014.5  C 287.25 1012.68  288.68 1011.25  290.5 1011.25  C 292.32 1011.25  293.75 1012.68  293.75 1014.5  C 293.75 1016.32  292.32 1017.75  290.5 1017.75  " fill-rule="nonzero" fill="#797979" stroke="none" />
</svg>