<?xml version="1.0" encoding="utf-8"?>
<svg version="1.1" xmlns:xlink="http://www.w3.org/1999/xlink" width="13px" height="13px" viewBox="157 4042  13 13" xmlns="http://www.w3.org/2000/svg">
  <path d="M 163.5 4042  C 167.14 4042  170 4044.86  170 4048.5  C 170 4052.14  167.14 4055  163.5 4055  C 159.86 4055  157 4052.14  157 4048.5  C 157 4044.86  159.86 4042  163.5 4042  Z " fill-rule="nonzero" fill="#f0f0f0" stroke="none" />
  <path d="M 163.5 4042.5  C 166.86 4042.5  169.5 4045.14  169.5 4048.5  C 169.5 4051.86  166.86 4054.5  163.5 4054.5  C 160.14 4054.5  157.5 4051.86  157.5 4048.5  C 157.5 4045.14  160.14 4042.5  163.5 4042.5  Z " stroke-width="1" stroke="#797979" fill="none" />
  <path d="M 163.5 4051.75  C 161.68 4051.75  160.25 4050.32  160.25 4048.5  C 160.25 4046.68  161.68 4045.25  163.5 4045.25  C 165.32 4045.25  166.75 4046.68  166.75 4048.5  C 166.75 4050.32  165.32 4051.75  163.5 4051.75  " fill-rule="nonzero" fill="#797979" stroke="none" />
</svg>