<?xml version="1.0" encoding="utf-8"?>
<svg version="1.1" xmlns:xlink="http://www.w3.org/1999/xlink" width="13px" height="13px" viewBox="157 2645  13 13" xmlns="http://www.w3.org/2000/svg">
  <path d="M 163.5 2645  C 167.14 2645  170 2647.86  170 2651.5  C 170 2655.14  167.14 2658  163.5 2658  C 159.86 2658  157 2655.14  157 2651.5  C 157 2647.86  159.86 2645  163.5 2645  Z " fill-rule="nonzero" fill="#ffffff" stroke="none" />
  <path d="M 163.5 2645.5  C 166.86 2645.5  169.5 2648.14  169.5 2651.5  C 169.5 2654.86  166.86 2657.5  163.5 2657.5  C 160.14 2657.5  157.5 2654.86  157.5 2651.5  C 157.5 2648.14  160.14 2645.5  163.5 2645.5  Z " stroke-width="1" stroke="#797979" fill="none" />
  <path d="M 163.5 2654.75  C 161.68 2654.75  160.25 2653.32  160.25 2651.5  C 160.25 2649.68  161.68 2648.25  163.5 2648.25  C 165.32 2648.25  166.75 2649.68  166.75 2651.5  C 166.75 2653.32  165.32 2654.75  163.5 2654.75  " fill-rule="nonzero" fill="#797979" stroke="none" />
</svg>