<?xml version="1.0" encoding="utf-8"?>
<svg version="1.1" xmlns:xlink="http://www.w3.org/1999/xlink" width="13px" height="13px" viewBox="284 2645  13 13" xmlns="http://www.w3.org/2000/svg">
  <path d="M 290.5 2645  C 294.14 2645  297 2647.86  297 2651.5  C 297 2655.14  294.14 2658  290.5 2658  C 286.86 2658  284 2655.14  284 2651.5  C 284 2647.86  286.86 2645  290.5 2645  Z " fill-rule="nonzero" fill="#ffffff" stroke="none" />
  <path d="M 290.5 2645.5  C 293.86 2645.5  296.5 2648.14  296.5 2651.5  C 296.5 2654.86  293.86 2657.5  290.5 2657.5  C 287.14 2657.5  284.5 2654.86  284.5 2651.5  C 284.5 2648.14  287.14 2645.5  290.5 2645.5  Z " stroke-width="1" stroke="#797979" fill="none" />
  <path d="M 290.5 2654.75  C 288.68 2654.75  287.25 2653.32  287.25 2651.5  C 287.25 2649.68  288.68 2648.25  290.5 2648.25  C 292.32 2648.25  293.75 2649.68  293.75 2651.5  C 293.75 2653.32  292.32 2654.75  290.5 2654.75  " fill-rule="nonzero" fill="#797979" stroke="none" />
</svg>