<?xml version="1.0" encoding="utf-8"?>
<svg version="1.1" xmlns:xlink="http://www.w3.org/1999/xlink" width="16px" height="16px" xmlns="http://www.w3.org/2000/svg">
  <g transform="matrix(1 0 0 1 -155 -1498 )">
    <path d="M 163 1498  C 167.48 1498  171 1501.52  171 1506  C 171 1510.48  167.48 1514  163 1514  C 158.52 1514  155 1510.48  155 1506  C 155 1501.52  158.52 1498  163 1498  Z " fill-rule="nonzero" fill="#ffffff" stroke="none" />
    <path d="M 163 1498.5  C 167.2 1498.5  170.5 1501.8  170.5 1506  C 170.5 1510.2  167.2 1513.5  163 1513.5  C 158.8 1513.5  155.5 1510.2  155.5 1506  C 155.5 1501.8  158.8 1498.5  163 1498.5  Z " stroke-width="1" stroke="#cccccc" fill="none" />
  </g>
</svg>