<?xml version="1.0" encoding="utf-8"?>
<svg version="1.1" xmlns:xlink="http://www.w3.org/1999/xlink" width="13px" height="13px" viewBox="936 609  13 13" xmlns="http://www.w3.org/2000/svg">
  <path d="M 942.5 609  C 946.14 609  949 611.86  949 615.5  C 949 619.14  946.14 622  942.5 622  C 938.86 622  936 619.14  936 615.5  C 936 611.86  938.86 609  942.5 609  Z " fill-rule="nonzero" fill="#ffffff" stroke="none" />
  <path d="M 942.5 609.5  C 945.86 609.5  948.5 612.14  948.5 615.5  C 948.5 618.86  945.86 621.5  942.5 621.5  C 939.14 621.5  936.5 618.86  936.5 615.5  C 936.5 612.14  939.14 609.5  942.5 609.5  Z " stroke-width="1" stroke="#797979" fill="none" />
  <path d="M 942.5 618.75  C 940.68 618.75  939.25 617.32  939.25 615.5  C 939.25 613.68  940.68 612.25  942.5 612.25  C 944.32 612.25  945.75 613.68  945.75 615.5  C 945.75 617.32  944.32 618.75  942.5 618.75  " fill-rule="nonzero" fill="#797979" stroke="none" />
</svg>