<?xml version="1.0" encoding="utf-8"?>
<svg version="1.1" xmlns:xlink="http://www.w3.org/1999/xlink" width="13px" height="13px" viewBox="936 575  13 13" xmlns="http://www.w3.org/2000/svg">
  <path d="M 942.5 575  C 946.14 575  949 577.86  949 581.5  C 949 585.14  946.14 588  942.5 588  C 938.86 588  936 585.14  936 581.5  C 936 577.86  938.86 575  942.5 575  Z " fill-rule="nonzero" fill="#f0f0f0" stroke="none" />
  <path d="M 942.5 575.5  C 945.86 575.5  948.5 578.14  948.5 581.5  C 948.5 584.86  945.86 587.5  942.5 587.5  C 939.14 587.5  936.5 584.86  936.5 581.5  C 936.5 578.14  939.14 575.5  942.5 575.5  Z " stroke-width="1" stroke="#797979" fill="none" />
  <path d="M 942.5 584.75  C 940.68 584.75  939.25 583.32  939.25 581.5  C 939.25 579.68  940.68 578.25  942.5 578.25  C 944.32 578.25  945.75 579.68  945.75 581.5  C 945.75 583.32  944.32 584.75  942.5 584.75  " fill-rule="nonzero" fill="#797979" stroke="none" />
</svg>