<?xml version="1.0" encoding="utf-8"?>
<svg version="1.1" xmlns:xlink="http://www.w3.org/1999/xlink" width="13px" height="13px" viewBox="936 644  13 13" xmlns="http://www.w3.org/2000/svg">
  <path d="M 942.5 644  C 946.14 644  949 646.86  949 650.5  C 949 654.14  946.14 657  942.5 657  C 938.86 657  936 654.14  936 650.5  C 936 646.86  938.86 644  942.5 644  Z " fill-rule="nonzero" fill="#f0f0f0" stroke="none" />
  <path d="M 942.5 644.5  C 945.86 644.5  948.5 647.14  948.5 650.5  C 948.5 653.86  945.86 656.5  942.5 656.5  C 939.14 656.5  936.5 653.86  936.5 650.5  C 936.5 647.14  939.14 644.5  942.5 644.5  Z " stroke-width="1" stroke="#797979" fill="none" />
  <path d="M 942.5 653.75  C 940.68 653.75  939.25 652.32  939.25 650.5  C 939.25 648.68  940.68 647.25  942.5 647.25  C 944.32 647.25  945.75 648.68  945.75 650.5  C 945.75 652.32  944.32 653.75  942.5 653.75  " fill-rule="nonzero" fill="#797979" stroke="none" />
</svg>