<?xml version="1.0" encoding="utf-8"?>
<svg version="1.1" xmlns:xlink="http://www.w3.org/1999/xlink" width="13px" height="13px" viewBox="163 225  13 13" xmlns="http://www.w3.org/2000/svg">
  <path d="M 169.5 225  C 173.14 225  176 227.86  176 231.5  C 176 235.14  173.14 238  169.5 238  C 165.86 238  163 235.14  163 231.5  C 163 227.86  165.86 225  169.5 225  Z " fill-rule="nonzero" fill="#ffffff" stroke="none" />
  <path d="M 169.5 225.5  C 172.86 225.5  175.5 228.14  175.5 231.5  C 175.5 234.86  172.86 237.5  169.5 237.5  C 166.14 237.5  163.5 234.86  163.5 231.5  C 163.5 228.14  166.14 225.5  169.5 225.5  Z " stroke-width="1" stroke="#797979" fill="none" />
  <path d="M 169.5 234.75  C 167.68 234.75  166.25 233.32  166.25 231.5  C 166.25 229.68  167.68 228.25  169.5 228.25  C 171.32 228.25  172.75 229.68  172.75 231.5  C 172.75 233.32  171.32 234.75  169.5 234.75  " fill-rule="nonzero" fill="#797979" stroke="none" />
</svg>