<?xml version="1.0" encoding="utf-8"?>
<svg version="1.1" xmlns:xlink="http://www.w3.org/1999/xlink" width="1190px" height="188px" xmlns="http://www.w3.org/2000/svg">
  <defs>
    <filter x="15px" y="503px" width="1190px" height="188px" filterUnits="userSpaceOnUse" id="filter633">
      <feOffset dx="0" dy="0" in="SourceAlpha" result="shadowOffsetInner" />
      <feGaussianBlur stdDeviation="2.5" in="shadowOffsetInner" result="shadowGaussian" />
      <feComposite in2="shadowGaussian" operator="atop" in="SourceAlpha" result="shadowComposite" />
      <feColorMatrix type="matrix" values="0 0 0 0 0.8941176470588235  0 0 0 0 0.8941176470588235  0 0 0 0 0.8941176470588235  0 0 0 1 0  " in="shadowComposite" />
    </filter>
    <g id="widget634">
      <path d="M 21 520  A 11 11 0 0 1 32 509 L 1188 509  A 11 11 0 0 1 1199 520 L 1199 674  A 11 11 0 0 1 1188 685 L 32 685  A 11 11 0 0 1 21 674 L 21 520  Z " fill-rule="nonzero" fill="#ffffff" stroke="none" />
      <path d="M 20.5 520  A 11.5 11.5 0 0 1 32 508.5 L 1188 508.5  A 11.5 11.5 0 0 1 1199.5 520 L 1199.5 674  A 11.5 11.5 0 0 1 1188 685.5 L 32 685.5  A 11.5 11.5 0 0 1 20.5 674 L 20.5 520  Z " stroke-width="1" stroke="#f2f2f2" fill="none" stroke-opacity="0.9882352941176471" />
    </g>
  </defs>
  <g transform="matrix(1 0 0 1 -15 -503 )">
    <use xlink:href="#widget634" filter="url(#filter633)" />
    <use xlink:href="#widget634" />
  </g>
</svg>