<?xml version="1.0" encoding="utf-8"?>
<svg version="1.1" xmlns:xlink="http://www.w3.org/1999/xlink" width="119px" height="82px" xmlns="http://www.w3.org/2000/svg">
  <g transform="matrix(1 0 0 1 -466 -390 )">
    <path d="M 466 390  L 585 390  L 585 472  L 466 472  L 466 390  " fill-rule="nonzero" fill="#cccccc" stroke="none" />
    <path d="M 472 396  L 579 396  L 579 466  L 472 466  L 472 396  " fill-rule="nonzero" fill="#ffffff" stroke="none" />
    <path d="M 534.03 414.6  C 530.586 414.6  527.88 411.894  527.88 408.45000000000005  C 527.88 405.00600000000003  530.586 402.3  534.03 402.3  C 537.4739999999999 402.3  540.18 405.00600000000003  540.18 408.45000000000005  C 540.18 411.894  537.4739999999999 414.6  534.03 414.6  " fill-rule="nonzero" fill="#cccccc" stroke="none" />
    <path d="M 474 464  L 474 427.7  L 499.75 411.2  L 535.8 436.7126050420168  L 556.4 421.1  L 577 436.7126050420168  L 577 464  L 474 464  " fill-rule="nonzero" fill="#169bd5" stroke="none" />
  </g>
</svg>