<?xml version="1.0" encoding="utf-8"?>
<svg version="1.1" xmlns:xlink="http://www.w3.org/1999/xlink" width="13px" height="13px" viewBox="1084 616  13 13" xmlns="http://www.w3.org/2000/svg">
  <path d="M 1090.5 616  C 1094.14 616  1097 618.86  1097 622.5  C 1097 626.14  1094.14 629  1090.5 629  C 1086.86 629  1084 626.14  1084 622.5  C 1084 618.86  1086.86 616  1090.5 616  Z " fill-rule="nonzero" fill="#f0f0f0" stroke="none" />
  <path d="M 1090.5 616.5  C 1093.86 616.5  1096.5 619.14  1096.5 622.5  C 1096.5 625.86  1093.86 628.5  1090.5 628.5  C 1087.14 628.5  1084.5 625.86  1084.5 622.5  C 1084.5 619.14  1087.14 616.5  1090.5 616.5  Z " stroke-width="1" stroke="#797979" fill="none" />
  <path d="M 1090.5 625.75  C 1088.68 625.75  1087.25 624.32  1087.25 622.5  C 1087.25 620.68  1088.68 619.25  1090.5 619.25  C 1092.32 619.25  1093.75 620.68  1093.75 622.5  C 1093.75 624.32  1092.32 625.75  1090.5 625.75  " fill-rule="nonzero" fill="#797979" stroke="none" />
</svg>