<?xml version="1.0" encoding="utf-8"?>
<svg version="1.1" xmlns:xlink="http://www.w3.org/1999/xlink" width="13px" height="13px" viewBox="1084 651  13 13" xmlns="http://www.w3.org/2000/svg">
  <path d="M 1090.5 651  C 1094.14 651  1097 653.86  1097 657.5  C 1097 661.14  1094.14 664  1090.5 664  C 1086.86 664  1084 661.14  1084 657.5  C 1084 653.86  1086.86 651  1090.5 651  Z " fill-rule="nonzero" fill="#f0f0f0" stroke="none" />
  <path d="M 1090.5 651.5  C 1093.86 651.5  1096.5 654.14  1096.5 657.5  C 1096.5 660.86  1093.86 663.5  1090.5 663.5  C 1087.14 663.5  1084.5 660.86  1084.5 657.5  C 1084.5 654.14  1087.14 651.5  1090.5 651.5  Z " stroke-width="1" stroke="#797979" fill="none" />
  <path d="M 1090.5 660.75  C 1088.68 660.75  1087.25 659.32  1087.25 657.5  C 1087.25 655.68  1088.68 654.25  1090.5 654.25  C 1092.32 654.25  1093.75 655.68  1093.75 657.5  C 1093.75 659.32  1092.32 660.75  1090.5 660.75  " fill-rule="nonzero" fill="#797979" stroke="none" />
</svg>