<?xml version="1.0" encoding="utf-8"?>
<svg version="1.1" xmlns:xlink="http://www.w3.org/1999/xlink" width="300px" height="170px" xmlns="http://www.w3.org/2000/svg">
  <g transform="matrix(1 0 0 1 -532 -99 )">
    <path d="M 532 99  L 832 99  L 832 269  L 532 269  L 532 99  " fill-rule="nonzero" fill="#cccccc" stroke="none" />
    <path d="M 544 111  L 820 111  L 820 257  L 544 257  L 544 111  " fill-rule="nonzero" fill="#ffffff" stroke="none" />
    <path d="M 700.75 150  C 693.61 150  688 144.39  688 137.25  C 688 130.11  693.61 124.5  700.75 124.5  C 707.89 124.5  713.5 130.11  713.5 137.25  C 713.5 144.39  707.89 150  700.75 150  " fill-rule="nonzero" fill="#cccccc" stroke="none" />
    <path d="M 549 253  L 549 177.64999999999998  L 615.75 143.39999999999998  L 709.2 206.42000000000002  L 762.6 163.95  L 816 206.42000000000002  L 816 253  L 549 253  " fill-rule="nonzero" fill="#169bd5" stroke="none" />
  </g>
</svg>