<?xml version="1.0" encoding="utf-8"?>
<svg version="1.1" xmlns:xlink="http://www.w3.org/1999/xlink" width="13px" height="13px" viewBox="35 303  13 13" xmlns="http://www.w3.org/2000/svg">
  <path d="M 41.5 303  C 45.14 303  48 305.86  48 309.5  C 48 313.14  45.14 316  41.5 316  C 37.86 316  35 313.14  35 309.5  C 35 305.86  37.86 303  41.5 303  Z " fill-rule="nonzero" fill="#ffffff" stroke="none" />
  <path d="M 41.5 303.5  C 44.86 303.5  47.5 306.14  47.5 309.5  C 47.5 312.86  44.86 315.5  41.5 315.5  C 38.14 315.5  35.5 312.86  35.5 309.5  C 35.5 306.14  38.14 303.5  41.5 303.5  Z " stroke-width="1" stroke="#797979" fill="none" />
  <path d="M 41.5 312.75  C 39.68 312.75  38.25 311.32  38.25 309.5  C 38.25 307.68  39.68 306.25  41.5 306.25  C 43.32 306.25  44.75 307.68  44.75 309.5  C 44.75 311.32  43.32 312.75  41.5 312.75  " fill-rule="nonzero" fill="#797979" stroke="none" />
</svg>