<?xml version="1.0" encoding="utf-8"?>
<svg version="1.1" xmlns:xlink="http://www.w3.org/1999/xlink" width="13px" height="13px" viewBox="1151 638  13 13" xmlns="http://www.w3.org/2000/svg">
  <path d="M 1157.5 638  C 1161.14 638  1164 640.86  1164 644.5  C 1164 648.14  1161.14 651  1157.5 651  C 1153.86 651  1151 648.14  1151 644.5  C 1151 640.86  1153.86 638  1157.5 638  Z " fill-rule="nonzero" fill="#f0f0f0" stroke="none" />
  <path d="M 1157.5 638.5  C 1160.86 638.5  1163.5 641.14  1163.5 644.5  C 1163.5 647.86  1160.86 650.5  1157.5 650.5  C 1154.14 650.5  1151.5 647.86  1151.5 644.5  C 1151.5 641.14  1154.14 638.5  1157.5 638.5  Z " stroke-width="1" stroke="#797979" fill="none" />
  <path d="M 1157.5 647.75  C 1155.68 647.75  1154.25 646.32  1154.25 644.5  C 1154.25 642.68  1155.68 641.25  1157.5 641.25  C 1159.32 641.25  1160.75 642.68  1160.75 644.5  C 1160.75 646.32  1159.32 647.75  1157.5 647.75  " fill-rule="nonzero" fill="#797979" stroke="none" />
</svg>