<?xml version="1.0" encoding="utf-8"?>
<svg version="1.1" xmlns:xlink="http://www.w3.org/1999/xlink" width="13px" height="13px" viewBox="1155 1315  13 13" xmlns="http://www.w3.org/2000/svg">
  <path d="M 1161.5 1315  C 1165.14 1315  1168 1317.86  1168 1321.5  C 1168 1325.14  1165.14 1328  1161.5 1328  C 1157.86 1328  1155 1325.14  1155 1321.5  C 1155 1317.86  1157.86 1315  1161.5 1315  Z " fill-rule="nonzero" fill="#f0f0f0" stroke="none" />
  <path d="M 1161.5 1315.5  C 1164.86 1315.5  1167.5 1318.14  1167.5 1321.5  C 1167.5 1324.86  1164.86 1327.5  1161.5 1327.5  C 1158.14 1327.5  1155.5 1324.86  1155.5 1321.5  C 1155.5 1318.14  1158.14 1315.5  1161.5 1315.5  Z " stroke-width="1" stroke="#797979" fill="none" />
  <path d="M 1161.5 1324.75  C 1159.68 1324.75  1158.25 1323.32  1158.25 1321.5  C 1158.25 1319.68  1159.68 1318.25  1161.5 1318.25  C 1163.32 1318.25  1164.75 1319.68  1164.75 1321.5  C 1164.75 1323.32  1163.32 1324.75  1161.5 1324.75  " fill-rule="nonzero" fill="#797979" stroke="none" />
</svg>