<?xml version="1.0" encoding="utf-8"?>
<svg version="1.1" xmlns:xlink="http://www.w3.org/1999/xlink" width="13px" height="13px" viewBox="157 235  13 13" xmlns="http://www.w3.org/2000/svg">
  <path d="M 163.5 235  C 167.14 235  170 237.86  170 241.5  C 170 245.14  167.14 248  163.5 248  C 159.86 248  157 245.14  157 241.5  C 157 237.86  159.86 235  163.5 235  Z " fill-rule="nonzero" fill="#ffffff" stroke="none" />
  <path d="M 163.5 235.5  C 166.86 235.5  169.5 238.14  169.5 241.5  C 169.5 244.86  166.86 247.5  163.5 247.5  C 160.14 247.5  157.5 244.86  157.5 241.5  C 157.5 238.14  160.14 235.5  163.5 235.5  Z " stroke-width="1" stroke="#797979" fill="none" />
  <path d="M 163.5 244.75  C 161.68 244.75  160.25 243.32  160.25 241.5  C 160.25 239.68  161.68 238.25  163.5 238.25  C 165.32 238.25  166.75 239.68  166.75 241.5  C 166.75 243.32  165.32 244.75  163.5 244.75  " fill-rule="nonzero" fill="#797979" stroke="none" />
</svg>