<?xml version="1.0" encoding="utf-8"?>
<svg version="1.1" xmlns:xlink="http://www.w3.org/1999/xlink" width="13px" height="13px" viewBox="284 235  13 13" xmlns="http://www.w3.org/2000/svg">
  <path d="M 290.5 235  C 294.14 235  297 237.86  297 241.5  C 297 245.14  294.14 248  290.5 248  C 286.86 248  284 245.14  284 241.5  C 284 237.86  286.86 235  290.5 235  Z " fill-rule="nonzero" fill="#ffffff" stroke="none" />
  <path d="M 290.5 235.5  C 293.86 235.5  296.5 238.14  296.5 241.5  C 296.5 244.86  293.86 247.5  290.5 247.5  C 287.14 247.5  284.5 244.86  284.5 241.5  C 284.5 238.14  287.14 235.5  290.5 235.5  Z " stroke-width="1" stroke="#797979" fill="none" />
  <path d="M 290.5 244.75  C 288.68 244.75  287.25 243.32  287.25 241.5  C 287.25 239.68  288.68 238.25  290.5 238.25  C 292.32 238.25  293.75 239.68  293.75 241.5  C 293.75 243.32  292.32 244.75  290.5 244.75  " fill-rule="nonzero" fill="#797979" stroke="none" />
</svg>