<?xml version="1.0" encoding="utf-8"?>
<svg version="1.1" xmlns:xlink="http://www.w3.org/1999/xlink" width="13px" height="13px" viewBox="172 237  13 13" xmlns="http://www.w3.org/2000/svg">
  <path d="M 178.5 237  C 182.14 237  185 239.86  185 243.5  C 185 247.14  182.14 250  178.5 250  C 174.86 250  172 247.14  172 243.5  C 172 239.86  174.86 237  178.5 237  Z " fill-rule="nonzero" fill="#ffffff" stroke="none" />
  <path d="M 178.5 237.5  C 181.86 237.5  184.5 240.14  184.5 243.5  C 184.5 246.86  181.86 249.5  178.5 249.5  C 175.14 249.5  172.5 246.86  172.5 243.5  C 172.5 240.14  175.14 237.5  178.5 237.5  Z " stroke-width="1" stroke="#797979" fill="none" />
  <path d="M 178.5 246.75  C 176.68 246.75  175.25 245.32  175.25 243.5  C 175.25 241.68  176.68 240.25  178.5 240.25  C 180.32 240.25  181.75 241.68  181.75 243.5  C 181.75 245.32  180.32 246.75  178.5 246.75  " fill-rule="nonzero" fill="#797979" stroke="none" />
</svg>