<?xml version="1.0" encoding="utf-8"?>
<svg version="1.1" xmlns:xlink="http://www.w3.org/1999/xlink" width="13px" height="13px" viewBox="299 237  13 13" xmlns="http://www.w3.org/2000/svg">
  <path d="M 305.5 237  C 309.14 237  312 239.86  312 243.5  C 312 247.14  309.14 250  305.5 250  C 301.86 250  299 247.14  299 243.5  C 299 239.86  301.86 237  305.5 237  Z " fill-rule="nonzero" fill="#f0f0f0" stroke="none" />
  <path d="M 305.5 237.5  C 308.86 237.5  311.5 240.14  311.5 243.5  C 311.5 246.86  308.86 249.5  305.5 249.5  C 302.14 249.5  299.5 246.86  299.5 243.5  C 299.5 240.14  302.14 237.5  305.5 237.5  Z " stroke-width="1" stroke="#797979" fill="none" />
  <path d="M 305.5 246.75  C 303.68 246.75  302.25 245.32  302.25 243.5  C 302.25 241.68  303.68 240.25  305.5 240.25  C 307.32 240.25  308.75 241.68  308.75 243.5  C 308.75 245.32  307.32 246.75  305.5 246.75  " fill-rule="nonzero" fill="#797979" stroke="none" />
</svg>