<?xml version="1.0" encoding="utf-8"?>
<svg version="1.1" xmlns:xlink="http://www.w3.org/1999/xlink" width="1190px" height="439px" xmlns="http://www.w3.org/2000/svg">
  <defs>
    <filter x="15px" y="57px" width="1190px" height="439px" filterUnits="userSpaceOnUse" id="filter2200">
      <feOffset dx="0" dy="0" in="SourceAlpha" result="shadowOffsetInner" />
      <feGaussianBlur stdDeviation="2.5" in="shadowOffsetInner" result="shadowGaussian" />
      <feComposite in2="shadowGaussian" operator="atop" in="SourceAlpha" result="shadowComposite" />
      <feColorMatrix type="matrix" values="0 0 0 0 0.8941176470588235  0 0 0 0 0.8941176470588235  0 0 0 0 0.8941176470588235  0 0 0 1 0  " in="shadowComposite" />
    </filter>
    <g id="widget2201">
      <path d="M 21 74  A 11 11 0 0 1 32 63 L 1188 63  A 11 11 0 0 1 1199 74 L 1199 479  A 11 11 0 0 1 1188 490 L 32 490  A 11 11 0 0 1 21 479 L 21 74  Z " fill-rule="nonzero" fill="#ffffff" stroke="none" />
      <path d="M 20.5 74  A 11.5 11.5 0 0 1 32 62.5 L 1188 62.5  A 11.5 11.5 0 0 1 1199.5 74 L 1199.5 479  A 11.5 11.5 0 0 1 1188 490.5 L 32 490.5  A 11.5 11.5 0 0 1 20.5 479 L 20.5 74  Z " stroke-width="1" stroke="#f2f2f2" fill="none" stroke-opacity="0.9882352941176471" />
    </g>
  </defs>
  <g transform="matrix(1 0 0 1 -15 -57 )">
    <use xlink:href="#widget2201" filter="url(#filter2200)" />
    <use xlink:href="#widget2201" />
  </g>
</svg>